:SAMPLES-PER-SECOND 30
:FRAME-RANGE 1-1770
:FULLY-SPECIFIED
:DEGREES
111
root  -5.89198 37.9259 -20.8254 0.695893 42.2646 3.33256
RightUpLeg  -6.87339 -21.0409 -7.97188
RightLeg  36.6463 -15.5693 -12.3507
RightFoot  -21.4401 0.958823 12.4598
RightToes  6.35937e-011 1.2921e-014 -6.02303e-014
Spine  3.00477 1.871 10.5673
Spine1  2.765 3.93934 -5.3197
HEad  5.86971 31.7977 -9.32326
LeftShoulder1  0.546283 2.10226 -32.8849
LeftArm  19.0056 26.7154 -25.3891
LeftForeArm  -7.67998 -23.637 -5.44755
LeftHand  -0.241479 -0.26211 5.02856
RightShoulder  5.8935 7.24658 48.0337
RightArm  41.8423 -7.71167 17.3445
RightForeArm  7.52568 30.4662 6.24132
RightHand  -0.336085 3.27254 -4.74282
LeftUpLeg  -2.24546 10.9978 21.2006
LeftLeg  20.7595 2.48663 1.36334
LeftFoot  -0.292733 2.78359 -28.2342
LeftToes  3.18074e-010 1.39432e-010 -7.71186e-011
112
root  -6.67821 37.6445 -19.9825 -0.38565 41.1925 1.78177
RightUpLeg  -7.21283 -22.5219 -5.24119
RightLeg  37.7268 -13.7814 -11.4528
RightFoot  -23.8614 1.09343 11.4153
RightToes  6.35937e-011 1.2921e-014 -6.02303e-014
Spine  4.10003 0.98487 11.823
Spine1  2.4161 3.09897 -3.91625
HEad  5.92214 34.2713 -9.23321
LeftShoulder1  0.681936 1.76685 -33.1722
LeftArm  11.7311 25.1126 -25.8382
LeftForeArm  3.95644 -10.678 -14.6198
LeftHand  -0.0210686 -1.17853 0.488258
RightShoulder  5.70085 7.02439 47.4376
RightArm  41.5909 -7.44451 17.3674
RightForeArm  3.29858 27.5831 5.77682
RightHand  -0.409554 3.22582 -5.75409
LeftUpLeg  -7.48138 6.59597 22.5445
LeftLeg  29.8276 10.5842 6.82239
LeftFoot  7.48546 3.49382 -21.1397
LeftToes  3.18074e-010 1.39432e-010 -7.71186e-011
113
root  -7.39181 37.5031 -19.123 -1.01922 38.6016 0.907613
RightUpLeg  -7.0543 -22.4006 -2.94704
RightLeg  37.6741 -12.2279 -10.2298
RightFoot  -25.7173 1.09468 10.0456
RightToes  6.35937e-011 1.2921e-014 -6.02303e-014
Spine  5.12874 0.728562 13.1053
Spine1  2.51545 3.10335 -3.84352
HEad  5.15921 36.4226 -8.97132
LeftShoulder1  0.804415 1.48085 -33.6766
LeftArm  4.14268 25.8347 -26.8249
LeftForeArm  11.3419 -3.56849 -17.0289
LeftHand  0.307486 -1.82269 -4.80635
RightShoulder  5.95076 7.62121 46.8461
RightArm  39.9967 -6.93325 17.4265
RightForeArm  -1.05718 27.6537 6.02441
RightHand  -0.381863 3.00548 -5.50739
LeftUpLeg  -11.9627 6.29811 22.1646
LeftLeg  37.7077 11.1499 9.45595
LeftFoot  11.9174 1.52569 -7.76082
LeftToes  3.18074e-010 1.39432e-010 -7.71186e-011
114
root  -8.07404 37.5641 -18.2001 -1.00598 34.2081 0.910226
RightUpLeg  -6.37342 -19.3514 -0.919691
RightLeg  36.3371 -11.8495 -9.48624
RightFoot  -26.4253 0.940139 8.44566
RightToes  6.35937e-011 1.2921e-014 -6.02303e-014
Spine  6.34116 1.13798 13.6569
Spine1  2.64597 3.85833 -4.70092
HEad  3.82461 38.8132 -9.55017
LeftShoulder1  0.791973 1.54247 -34.2822
LeftArm  0.931148 28.3512 -28.5122
LeftForeArm  10.6347 -3.09779 -16.9612
LeftHand  0.48772 -1.93322 -7.58206
RightShoulder  6.69133 8.93601 47.1065
RightArm  38.7291 -4.98921 17.7779
RightForeArm  -0.405989 26.7104 5.76836
RightHand  -0.38751 3.17005 -5.48923
LeftUpLeg  -15.1572 9.34679 19.6866
LeftLeg  43.3952 7.44225 7.84901
LeftFoot  6.46704 0.97997 -6.50252
LeftToes  3.18074e-010 1.39432e-010 -7.71186e-011
115
root  -8.67857 37.7891 -17.1844 -0.503633 29.73 1.4019
RightUpLeg  -4.80781 -16.3195 0.445483
RightLeg  33.3684 -11.5306 -8.32883
RightFoot  -26.368 0.702031 6.67552
RightToes  6.35937e-011 1.2921e-014 -6.02303e-014
Spine  7.07686 1.80651 13.6872
Spine1  2.4846 4.72017 -5.73468
HEad  2.97347 40.9951 -10.3352
LeftShoulder1  0.693998 1.79175 -34.4317
LeftArm  -0.13462 30.7655 -30.7113
LeftForeArm  10.6585 -4.47511 -16.4804
LeftHand  0.50452 -2.14435 -7.60833
RightShoulder  7.55514 10.2335 48.1727
RightArm  38.5892 -2.02821 18.1322
RightForeArm  -0.893827 25.2718 5.46314
RightHand  -0.409322 3.43418 -5.62898
LeftUpLeg  -17.9831 12.9598 15.334
LeftLeg  46.2089 7.35229 8.53105
LeftFoot  2.76986 0.943892 -7.7549
LeftToes  3.18074e-010 1.39432e-010 -7.71186e-011
116
root  -9.22798 38.0873 -16.1476 0.647551 25.9128 2.13849
RightUpLeg  -2.94394 -15.7623 0.838348
RightLeg  29.2785 -9.74773 -6.11679
RightFoot  -25.657 0.403643 4.59921
RightToes  6.35937e-011 1.2921e-014 -6.02303e-014
Spine  7.37475 2.64809 13.5783
Spine1  1.63203 5.55183 -6.95333
HEad  3.07178 42.49 -10.8972
LeftShoulder1  0.649004 1.90064 -34.3773
LeftArm  -0.466764 31.9574 -32.4692
LeftForeArm  11.212 -5.71747 -15.9988
LeftHand  0.480175 -2.42195 -6.95173
RightShoulder  8.27909 11.2381 49.1909
RightArm  37.4738 0.490563 18.7524
RightForeArm  -2.66685 24.7737 5.44093
RightHand  -0.361958 3.44893 -4.99941
LeftUpLeg  -21.4565 15.6598 9.4724
LeftLeg  46.1156 7.93583 9.13392
LeftFoot  -0.462647 0.87818 -9.18074
LeftToes  3.18074e-010 1.39432e-010 -7.71186e-011
117
root  -9.80115 38.466 -15.1114 1.95259 22.5283 3.09938
RightUpLeg  -0.627541 -14.693 0.569149
RightLeg  24.3069 -8.68191 -3.51257
RightFoot  -24.0818 0.147465 2.78293
RightToes  6.35937e-011 1.2921e-014 -6.02303e-014
Spine  7.79196 3.59628 13.1825
Spine1  0.618386 6.45494 -8.6358
HEad  3.36036 43.387 -11.5258
LeftShoulder1  0.658329 1.87216 -34.2448
LeftArm  -0.449097 31.5005 -33.2554
LeftForeArm  10.7783 -6.41977 -15.7283
LeftHand  0.502853 -2.60063 -7.10974
RightShoulder  9.13847 12.5617 49.8134
RightArm  35.0818 2.02324 19.5376
RightForeArm  -2.65099 25.2282 5.54293
RightHand  -0.34456 3.41875 -4.78548
LeftUpLeg  -24.551 16.7734 2.75204
LeftLeg  42.3523 7.86949 7.99042
LeftFoot  -2.47457 0.714411 -9.01087
LeftToes  3.18074e-010 1.39432e-010 -7.71186e-011
118
root  -10.3366 38.7342 -14.0446 3.0054 19.5492 3.74604
RightUpLeg  1.52231 -11.6221 0.769201
RightLeg  20.2435 -9.47392 -1.72093
RightFoot  -22.3261 -0.0128046 1.43944
RightToes  6.35937e-011 1.2921e-014 -6.02303e-014
Spine  8.15153 4.40163 12.9485
Spine1  -0.225818 7.25933 -10.1616
HEad  3.07791 43.9111 -12.2938
LeftShoulder1  0.682946 1.79965 -33.9779
LeftArm  -0.0550168 29.8698 -33.1143
LeftForeArm  9.95429 -6.75676 -15.6163
LeftHand  0.482593 -1.98025 -7.44849
RightShoulder  10.2372 14.2997 50.3376
RightArm  32.7242 3.18699 20.4854
RightForeArm  -0.726483 25.9512 5.60945
RightHand  -0.355126 3.42185 -4.92306
LeftUpLeg  -26.9713 17.2038 -3.49477
LeftLeg  35.9836 6.11214 5.1009
LeftFoot  -3.74821 0.66806 -9.71272
LeftToes  3.18074e-010 1.39432e-010 -7.71186e-011
